<mxfile host="app.diagrams.net" modified="2023-03-01T13:58:34.412Z" agent="5.0 (Windows NT 10.0; Win64; x64) AppleWebKit/537.36 (KHTML, like Gecko) Chrome/109.0.0.0 Safari/537.36 OPR/95.0.0.0" etag="GV9kZVHUwFTiZuwqNush" version="20.8.23" type="github">
  <diagram id="C5RBs43oDa-KdzZeNtuy" name="Page-1">
    <mxGraphModel dx="1393" dy="766" grid="1" gridSize="2" guides="1" tooltips="1" connect="1" arrows="1" fold="1" page="1" pageScale="1" pageWidth="827" pageHeight="1169" background="#FFFFFF" math="0" shadow="0">
      <root>
        <mxCell id="WIyWlLk6GJQsqaUBKTNV-0" />
        <mxCell id="WIyWlLk6GJQsqaUBKTNV-1" parent="WIyWlLk6GJQsqaUBKTNV-0" />
        <mxCell id="w6B9w1y9c1CesLqIutMe-5" value="" style="edgeStyle=orthogonalEdgeStyle;rounded=0;orthogonalLoop=1;jettySize=auto;html=1;fontSize=20;" edge="1" parent="WIyWlLk6GJQsqaUBKTNV-1" source="w6B9w1y9c1CesLqIutMe-0" target="w6B9w1y9c1CesLqIutMe-3">
          <mxGeometry relative="1" as="geometry" />
        </mxCell>
        <mxCell id="w6B9w1y9c1CesLqIutMe-0" value="START" style="ellipse;whiteSpace=wrap;html=1;labelBackgroundColor=none;fontSize=20;" vertex="1" parent="WIyWlLk6GJQsqaUBKTNV-1">
          <mxGeometry x="240" y="80" width="120" height="80" as="geometry" />
        </mxCell>
        <mxCell id="w6B9w1y9c1CesLqIutMe-8" value="" style="edgeStyle=orthogonalEdgeStyle;rounded=0;orthogonalLoop=1;jettySize=auto;html=1;fontSize=20;" edge="1" parent="WIyWlLk6GJQsqaUBKTNV-1" source="w6B9w1y9c1CesLqIutMe-1" target="w6B9w1y9c1CesLqIutMe-7">
          <mxGeometry relative="1" as="geometry">
            <Array as="points">
              <mxPoint x="400" y="341" />
            </Array>
          </mxGeometry>
        </mxCell>
        <mxCell id="w6B9w1y9c1CesLqIutMe-16" value="TAK" style="edgeLabel;html=1;align=center;verticalAlign=middle;resizable=0;points=[];fontSize=20;" vertex="1" connectable="0" parent="w6B9w1y9c1CesLqIutMe-8">
          <mxGeometry x="-0.2235" relative="1" as="geometry">
            <mxPoint y="44" as="offset" />
          </mxGeometry>
        </mxCell>
        <mxCell id="w6B9w1y9c1CesLqIutMe-10" value="" style="edgeStyle=orthogonalEdgeStyle;rounded=0;orthogonalLoop=1;jettySize=auto;html=1;fontSize=20;" edge="1" parent="WIyWlLk6GJQsqaUBKTNV-1" source="w6B9w1y9c1CesLqIutMe-1" target="w6B9w1y9c1CesLqIutMe-9">
          <mxGeometry relative="1" as="geometry">
            <Array as="points">
              <mxPoint x="200" y="341" />
            </Array>
          </mxGeometry>
        </mxCell>
        <mxCell id="w6B9w1y9c1CesLqIutMe-17" value="NIE" style="edgeLabel;html=1;align=center;verticalAlign=middle;resizable=0;points=[];fontSize=20;" vertex="1" connectable="0" parent="w6B9w1y9c1CesLqIutMe-10">
          <mxGeometry x="0.1412" y="1" relative="1" as="geometry">
            <mxPoint x="-1" y="21" as="offset" />
          </mxGeometry>
        </mxCell>
        <mxCell id="w6B9w1y9c1CesLqIutMe-1" value="a &amp;lt; 0" style="rhombus;whiteSpace=wrap;html=1;labelBackgroundColor=none;fontSize=20;" vertex="1" parent="WIyWlLk6GJQsqaUBKTNV-1">
          <mxGeometry x="245" y="286" width="110" height="110" as="geometry" />
        </mxCell>
        <mxCell id="w6B9w1y9c1CesLqIutMe-6" value="" style="edgeStyle=orthogonalEdgeStyle;rounded=0;orthogonalLoop=1;jettySize=auto;html=1;fontSize=20;" edge="1" parent="WIyWlLk6GJQsqaUBKTNV-1" source="w6B9w1y9c1CesLqIutMe-3" target="w6B9w1y9c1CesLqIutMe-1">
          <mxGeometry relative="1" as="geometry" />
        </mxCell>
        <mxCell id="w6B9w1y9c1CesLqIutMe-3" value="pobierz a" style="rounded=0;whiteSpace=wrap;html=1;labelBackgroundColor=none;fontSize=20;" vertex="1" parent="WIyWlLk6GJQsqaUBKTNV-1">
          <mxGeometry x="240" y="190" width="120" height="60" as="geometry" />
        </mxCell>
        <mxCell id="w6B9w1y9c1CesLqIutMe-14" style="edgeStyle=orthogonalEdgeStyle;rounded=0;orthogonalLoop=1;jettySize=auto;html=1;entryX=1;entryY=0.5;entryDx=0;entryDy=0;fontSize=20;" edge="1" parent="WIyWlLk6GJQsqaUBKTNV-1" source="w6B9w1y9c1CesLqIutMe-7" target="w6B9w1y9c1CesLqIutMe-13">
          <mxGeometry relative="1" as="geometry" />
        </mxCell>
        <mxCell id="w6B9w1y9c1CesLqIutMe-7" value="a * (-1)" style="whiteSpace=wrap;html=1;fontSize=20;labelBackgroundColor=none;" vertex="1" parent="WIyWlLk6GJQsqaUBKTNV-1">
          <mxGeometry x="338" y="420" width="120" height="60" as="geometry" />
        </mxCell>
        <mxCell id="w6B9w1y9c1CesLqIutMe-15" style="edgeStyle=orthogonalEdgeStyle;rounded=0;orthogonalLoop=1;jettySize=auto;html=1;entryX=0;entryY=0.5;entryDx=0;entryDy=0;fontSize=20;" edge="1" parent="WIyWlLk6GJQsqaUBKTNV-1" source="w6B9w1y9c1CesLqIutMe-9" target="w6B9w1y9c1CesLqIutMe-13">
          <mxGeometry relative="1" as="geometry" />
        </mxCell>
        <mxCell id="w6B9w1y9c1CesLqIutMe-9" value="a" style="whiteSpace=wrap;html=1;fontSize=20;labelBackgroundColor=none;" vertex="1" parent="WIyWlLk6GJQsqaUBKTNV-1">
          <mxGeometry x="140" y="420" width="120" height="60" as="geometry" />
        </mxCell>
        <mxCell id="w6B9w1y9c1CesLqIutMe-13" value="STOP" style="ellipse;whiteSpace=wrap;html=1;labelBackgroundColor=none;fontSize=20;" vertex="1" parent="WIyWlLk6GJQsqaUBKTNV-1">
          <mxGeometry x="240" y="498" width="120" height="80" as="geometry" />
        </mxCell>
      </root>
    </mxGraphModel>
  </diagram>
</mxfile>
